<?xml version="1.0" encoding="UTF-8" standalone="no"?>
<!-- Created with Inkscape (http://www.inkscape.org/) -->

<svg
   xmlns:dc="http://purl.org/dc/elements/1.1/"
   xmlns:cc="http://creativecommons.org/ns#"
   xmlns:rdf="http://www.w3.org/1999/02/22-rdf-syntax-ns#"
   xmlns:svg="http://www.w3.org/2000/svg"
   xmlns="http://www.w3.org/2000/svg"
   xmlns:sodipodi="http://sodipodi.sourceforge.net/DTD/sodipodi-0.dtd"
   xmlns:inkscape="http://www.inkscape.org/namespaces/inkscape"
   width="92.125977"
   height="124.01573"
   id="svg2"
   version="1.1"
   inkscape:version="0.47pre4 r22446"
   sodipodi:docname="New document 1">
  <defs
     id="defs4">
    <inkscape:perspective
       sodipodi:type="inkscape:persp3d"
       inkscape:vp_x="0 : 526.18109 : 1"
       inkscape:vp_y="0 : 1000 : 0"
       inkscape:vp_z="744.09448 : 526.18109 : 1"
       inkscape:persp3d-origin="372.04724 : 350.78739 : 1"
       id="perspective10" />
  </defs>
  <sodipodi:namedview
     id="base"
     pagecolor="#ffffff"
     bordercolor="#666666"
     borderopacity="1.0"
     inkscape:pageopacity="0.0"
     inkscape:pageshadow="2"
     inkscape:zoom="2.8"
     inkscape:cx="95.549903"
     inkscape:cy="47.353756"
     inkscape:document-units="px"
     inkscape:current-layer="layer2"
     showgrid="true"
     inkscape:window-width="1280"
     inkscape:window-height="974"
     inkscape:window-x="-4"
     inkscape:window-y="-3"
     inkscape:window-maximized="1">
    <inkscape:grid
       type="xygrid"
       id="grid2816"
       empspacing="4"
       visible="true"
       enabled="true"
       snapvisiblegridlinesonly="true"
       units="mm"
       spacingx="1mm"
       spacingy="1mm" />
  </sodipodi:namedview>
  <metadata
     id="metadata7">
    <rdf:RDF>
      <cc:Work
         rdf:about="">
        <dc:format>image/svg+xml</dc:format>
        <dc:type
           rdf:resource="http://purl.org/dc/dcmitype/StillImage" />
        <dc:title></dc:title>
      </cc:Work>
    </rdf:RDF>
  </metadata>
  <g
     inkscape:label="Layer 1"
     inkscape:groupmode="layer"
     id="layer1"
     sodipodi:insensitive="true"
     transform="translate(-184.25197,-467.71652)">
    <path
       style="fill:none;stroke:#777777;stroke-width:1px;stroke-linecap:butt;stroke-linejoin:miter;stroke-opacity:1"
       d="m 226.77165,513.77951 28.34646,0 0,56.69291 -28.34646,0 0,-56.69291 z"
       id="path2818" />
    <path
       style="fill:none;stroke:#777777;stroke-width:1px;stroke-linecap:butt;stroke-linejoin:miter;stroke-opacity:1"
       d="m 230.31496,517.32281 7.08661,0 0,7.08662 -7.08661,0 0,-7.08662 z"
       id="path2820" />
    <path
       style="fill:none;stroke:#777777;stroke-width:1px;stroke-linecap:butt;stroke-linejoin:miter;stroke-opacity:1"
       d="m 244.48819,517.32281 0,7.08662 7.08661,0 0,-7.08662 -7.08661,0 z"
       id="path2822" />
    <path
       style="fill:none;stroke:#777777;stroke-width:1px;stroke-linecap:butt;stroke-linejoin:miter;stroke-opacity:1"
       d="m 230.31496,531.49604 7.08661,0 0,7.08662 -7.08661,0 0,-7.08662 z"
       id="path2824" />
    <path
       style="fill:none;stroke:#777777;stroke-width:1px;stroke-linecap:butt;stroke-linejoin:miter;stroke-opacity:1"
       d="m 244.48819,531.49604 7.08661,0 0,7.08662 -7.08661,0 0,-7.08662 z"
       id="path2826" />
    <path
       style="fill:none;stroke:#777777;stroke-width:1px;stroke-linecap:butt;stroke-linejoin:miter;stroke-opacity:1"
       d="m 230.31496,545.66927 7.08661,0 0,7.08661 -7.08661,0 0,-7.08661 z"
       id="path2828" />
    <path
       style="fill:none;stroke:#777777;stroke-width:1px;stroke-linecap:butt;stroke-linejoin:miter;stroke-opacity:1"
       d="m 230.31496,559.8425 7.08661,0 0,7.08661 -7.08661,0 0,-7.08661 z"
       id="path2830" />
    <path
       style="fill:none;stroke:#777777;stroke-width:1px;stroke-linecap:butt;stroke-linejoin:miter;stroke-opacity:1"
       d="m 244.48819,545.66927 7.08661,0 0,7.08661 -7.08661,0 0,-7.08661 z"
       id="path2832" />
    <path
       style="fill:none;stroke:#777777;stroke-width:1px;stroke-linecap:butt;stroke-linejoin:miter;stroke-opacity:1"
       d="m 244.48819,559.8425 7.08661,0 0,7.08661 -7.08661,0 0,-7.08661 z"
       id="path2834" />
    <path
       style="fill:none;stroke:#777777;stroke-width:1px;stroke-linecap:butt;stroke-linejoin:miter;stroke-opacity:1"
       d="m 258.66142,574.01573 3.5433,0 0,7.08661 -3.5433,0 0,-7.08661 z"
       id="path2836" />
    <path
       style="fill:none;stroke:#777777;stroke-width:1px;stroke-linecap:butt;stroke-linejoin:miter;stroke-opacity:1"
       d="m 258.66142,566.92911 3.5433,0 0,-7.08661 -3.5433,0 0,7.08661 z"
       id="path2838" />
    <path
       style="fill:none;stroke:#777777;stroke-width:1px;stroke-linecap:butt;stroke-linejoin:miter;stroke-opacity:1"
       d="m 262.20472,552.75588 0,-7.08661 -3.5433,0 0,7.08661 3.5433,0 z"
       id="path2840" />
    <path
       style="fill:none;stroke:#777777;stroke-width:1px;stroke-linecap:butt;stroke-linejoin:miter;stroke-opacity:1"
       d="m 262.20472,538.58266 0,-7.08662 -3.5433,0 0,7.08662 3.5433,0 z"
       id="path2842" />
    <path
       style="fill:none;stroke:#777777;stroke-width:1px;stroke-linecap:butt;stroke-linejoin:miter;stroke-opacity:1"
       d="m 258.66142,517.32281 0,7.08662 3.5433,0 0,-7.08662 -3.5433,0 z"
       id="path2844" />
    <path
       style="fill:none;stroke:#777777;stroke-width:1px;stroke-linecap:butt;stroke-linejoin:miter;stroke-opacity:1"
       d="m 258.66142,510.2362 3.5433,0 0,-7.08662 -3.5433,0 0,7.08662 z"
       id="path2846" />
    <path
       style="fill:none;stroke:#777777;stroke-width:1px;stroke-linecap:butt;stroke-linejoin:miter;stroke-opacity:1"
       d="m 262.20472,496.06297 0,-7.08661 -3.5433,0 0,7.08661 3.5433,0 z"
       id="path2848" />
    <path
       style="fill:none;stroke:#777777;stroke-width:1px;stroke-linecap:butt;stroke-linejoin:miter;stroke-opacity:1"
       d="m 272.83465,471.25982 -10.62993,0 0,113.38583 10.62993,0"
       id="path2850" />
    <path
       style="fill:none;stroke:#777777;stroke-width:1px;stroke-linecap:butt;stroke-linejoin:miter;stroke-opacity:1"
       d="m 262.20472,474.80313 -3.5433,0 0,7.08661 3.5433,0 0,-7.08661 z"
       id="path2852" />
    <text
       xml:space="preserve"
       style="font-size:32px;font-style:normal;font-weight:normal;fill:#6e6e6e;fill-opacity:1;stroke:none;font-family:Bitstream Vera Sans"
       x="-588.18896"
       y="212.59842"
       id="text3626"
       transform="matrix(0,-1,1,0,0,0)"><tspan
         sodipodi:role="line"
         id="tspan3628"
         x="-588.18896"
         y="212.59842">JP_BR</tspan></text>
  </g>
  <g
     inkscape:groupmode="layer"
     id="layer2"
     inkscape:label="Layer"
     transform="translate(-184.25197,-467.71652)">
    <path
       style="fill:none;stroke:#000000;stroke-width:1px;stroke-linecap:butt;stroke-linejoin:miter;stroke-opacity:1"
       d="m 226.77165,556.29919 28.34646,0 0,14.17322 -28.34646,0 0,-14.17322 z"
       id="path3631" />
    <path
       style="fill:none;stroke:#000000;stroke-width:1px;stroke-linecap:butt;stroke-linejoin:miter;stroke-opacity:1"
       d="m 230.31496,559.84249 21.25984,0 0,7.08662 -21.25984,0 0,-7.08662 z"
       id="path3633" />
  </g>
</svg>
