<?xml version="1.0" encoding="UTF-8" standalone="no"?>
<!-- Created with Inkscape (http://www.inkscape.org/) -->

<svg
   xmlns:dc="http://purl.org/dc/elements/1.1/"
   xmlns:cc="http://creativecommons.org/ns#"
   xmlns:rdf="http://www.w3.org/1999/02/22-rdf-syntax-ns#"
   xmlns:svg="http://www.w3.org/2000/svg"
   xmlns="http://www.w3.org/2000/svg"
   xmlns:sodipodi="http://sodipodi.sourceforge.net/DTD/sodipodi-0.dtd"
   xmlns:inkscape="http://www.inkscape.org/namespaces/inkscape"
   width="106.29922"
   height="177.16534"
   id="svg3784"
   version="1.1"
   inkscape:version="0.47pre4 r22446"
   sodipodi:docname="New document 10">
  <defs
     id="defs3786">
    <inkscape:perspective
       sodipodi:type="inkscape:persp3d"
       inkscape:vp_x="0 : 526.18109 : 1"
       inkscape:vp_y="0 : 1000 : 0"
       inkscape:vp_z="744.09448 : 526.18109 : 1"
       inkscape:persp3d-origin="372.04724 : 350.78739 : 1"
       id="perspective3792" />
  </defs>
  <sodipodi:namedview
     id="base"
     pagecolor="#ffffff"
     bordercolor="#666666"
     borderopacity="1.0"
     inkscape:pageopacity="0.0"
     inkscape:pageshadow="2"
     inkscape:zoom="3.959798"
     inkscape:cx="46.922543"
     inkscape:cy="85.691876"
     inkscape:document-units="px"
     inkscape:current-layer="layer3"
     showgrid="true"
     inkscape:window-width="1280"
     inkscape:window-height="974"
     inkscape:window-x="-4"
     inkscape:window-y="-3"
     inkscape:window-maximized="1">
    <inkscape:grid
       type="xygrid"
       id="grid3794"
       empspacing="4"
       visible="true"
       enabled="true"
       snapvisiblegridlinesonly="true"
       units="mm"
       spacingx="1mm"
       spacingy="1mm" />
  </sodipodi:namedview>
  <metadata
     id="metadata3789">
    <rdf:RDF>
      <cc:Work
         rdf:about="">
        <dc:format>image/svg+xml</dc:format>
        <dc:type
           rdf:resource="http://purl.org/dc/dcmitype/StillImage" />
        <dc:title></dc:title>
      </cc:Work>
    </rdf:RDF>
  </metadata>
  <g
     inkscape:label="Layer 1"
     inkscape:groupmode="layer"
     id="layer1"
     transform="translate(-124.01575,-488.97635)"
     sodipodi:insensitive="true">
    <path
       style="fill:none;stroke:#898989;stroke-width:1px;stroke-linecap:butt;stroke-linejoin:miter;stroke-opacity:1"
       d="m 170.07874,527.95273 0,70.86615 28.34646,0 0,-70.86615 -28.34646,0 z"
       id="path3796" />
    <path
       style="fill:none;stroke:#898989;stroke-width:1px;stroke-linecap:butt;stroke-linejoin:miter;stroke-opacity:1"
       d="m 173.62205,531.49604 7.08661,0 0,7.08662 -7.08661,0 0,-7.08662 z"
       id="path3798" />
    <path
       style="fill:none;stroke:#898989;stroke-width:1px;stroke-linecap:butt;stroke-linejoin:miter;stroke-opacity:1"
       d="m 187.79528,531.49604 0,7.08662 7.08661,0 0,-7.08662 -7.08661,0 z"
       id="path3800" />
    <path
       style="fill:none;stroke:#898989;stroke-width:1px;stroke-linecap:butt;stroke-linejoin:miter;stroke-opacity:1"
       d="m 173.62205,545.66927 7.08661,0 0,7.08661 -7.08661,0 0,-7.08661 z"
       id="path3802" />
    <path
       style="fill:none;stroke:#898989;stroke-width:1px;stroke-linecap:butt;stroke-linejoin:miter;stroke-opacity:1"
       d="m 187.79528,545.66927 7.08661,0 0,7.08661 -7.08661,0 0,-7.08661 z"
       id="path3804" />
    <path
       style="fill:none;stroke:#898989;stroke-width:1px;stroke-linecap:butt;stroke-linejoin:miter;stroke-opacity:1"
       d="m 173.62205,559.8425 7.08661,0 0,7.08661 -7.08661,0 0,-7.08661 z"
       id="path3806" />
    <path
       style="fill:none;stroke:#898989;stroke-width:1px;stroke-linecap:butt;stroke-linejoin:miter;stroke-opacity:1"
       d="m 173.62205,574.01573 7.08661,0 0,7.08661 -7.08661,0 0,-7.08661 z"
       id="path3808" />
    <path
       style="fill:none;stroke:#898989;stroke-width:1px;stroke-linecap:butt;stroke-linejoin:miter;stroke-opacity:1"
       d="m 173.62205,588.18895 7.08661,0 0,7.08662 -7.08661,0 0,-7.08662 z"
       id="path3810" />
    <path
       style="fill:none;stroke:#898989;stroke-width:1px;stroke-linecap:butt;stroke-linejoin:miter;stroke-opacity:1"
       d="m 187.79528,588.18895 0,7.08662 7.08661,0 0,-7.08662 -7.08661,0 z"
       id="path3812" />
    <path
       style="fill:none;stroke:#898989;stroke-width:1px;stroke-linecap:butt;stroke-linejoin:miter;stroke-opacity:1"
       d="m 187.79528,581.10234 7.08661,0 0,-7.08661 -7.08661,0 0,7.08661 z"
       id="path3814" />
    <path
       style="fill:none;stroke:#898989;stroke-width:1px;stroke-linecap:butt;stroke-linejoin:miter;stroke-opacity:1"
       d="m 187.79528,566.92911 7.08661,0 0,-7.08661 -7.08661,0 0,7.08661 z"
       id="path3816" />
    <path
       style="fill:none;stroke:#898989;stroke-width:1px;stroke-linecap:butt;stroke-linejoin:miter;stroke-opacity:1"
       d="m 184.25197,520.86612 c 0,0 14.17323,0 14.17323,-14.17323 0,-14.17323 -14.17323,-14.17323 -14.17323,-14.17323 0,0 -14.17323,0 -14.17323,14.17323 0,14.17323 14.52664,14.07652 14.17323,14.17323 z"
       id="path3818" />
    <path
       style="fill:none;stroke:#898989;stroke-width:1px;stroke-linecap:butt;stroke-linejoin:miter;stroke-opacity:1"
       d="m 198.4252,605.90549 0,56.69291 -3.54331,0 0,-56.69291 3.54331,0 z"
       id="path3820" />
    <path
       style="fill:none;stroke:#898989;stroke-width:1px;stroke-linecap:butt;stroke-linejoin:miter;stroke-opacity:1"
       d="m 198.4252,609.4488 24.80315,0 0,49.6063 -24.80315,0 0,-49.6063 z"
       id="path3822" />
    <path
       style="fill:none;stroke:#898989;stroke-width:1px;stroke-linecap:butt;stroke-linejoin:miter;stroke-opacity:1"
       d="m 194.88189,609.4488 -10.62992,0 0,49.6063 10.62992,0 0,-49.6063 z"
       id="path3824" />
    <path
       style="fill:none;stroke:#898989;stroke-width:1px;stroke-linecap:butt;stroke-linejoin:miter;stroke-opacity:1"
       d="m 184.25197,616.53541 -10.62992,0 0,35.43307 10.62992,0 0,-35.43307 z"
       id="path3826" />
    <path
       style="fill:none;stroke:#898989;stroke-width:1px;stroke-linecap:butt;stroke-linejoin:miter;stroke-opacity:1"
       d="m 173.62205,623.62203 -17.71654,0 0,3.5433 17.71654,0 0,-3.5433 z"
       id="path3828" />
    <path
       style="fill:none;stroke:#898989;stroke-width:1px;stroke-linecap:butt;stroke-linejoin:miter;stroke-opacity:1"
       d="m 173.62205,641.33856 0,3.54331 -17.71654,0 0,-3.54331 17.71654,0 z"
       id="path3830" />
    <path
       style="fill:none;stroke:#898989;stroke-width:1px;stroke-linecap:butt;stroke-linejoin:miter;stroke-opacity:1"
       d="m 194.88189,605.90549 -67.32283,0 0,56.69291 67.32283,0 0,-56.69291 z"
       id="path3832" />
    <text
       xml:space="preserve"
       style="font-size:32px;font-style:normal;font-weight:normal;fill:#898989;fill-opacity:1;stroke:none;font-family:Bitstream Vera Sans"
       x="-602.36218"
       y="155.90552"
       id="text3834"
       transform="matrix(0,-1,1,0,0,0)"><tspan
         sodipodi:role="line"
         id="tspan3836"
         x="-602.36218"
         y="155.90552">JP_ST</tspan></text>
    <path
       style="fill:none;stroke:#898989;stroke-width:1px;stroke-linecap:butt;stroke-linejoin:miter;stroke-opacity:1"
       d="m 74.409449,-1.0092427e-5 0,177.165350092427"
       id="path4351"
       transform="translate(124.01575,488.97635)" />
  </g>
  <g
     inkscape:groupmode="layer"
     id="layer4"
     inkscape:label="Layer#1">
    <path
       style="fill:#898989;fill-opacity:0.68558948;stroke:none"
       d="m 46.062992,38.976368 28.346457,0 0,14.173228 -28.346457,0 0,-14.173228 z"
       id="path4381" />
    <path
       id="path5902"
       d="m 46.062992,81.496053 28.346457,0 0,28.346457 -28.346457,0 0,-28.346457 z"
       style="fill:#898989;fill-opacity:0.68558948;stroke:none" />
  </g>
  <g
     inkscape:groupmode="layer"
     id="layer3"
     inkscape:label="Layer" />
</svg>
