<?xml version="1.0" encoding="UTF-8" standalone="no"?>
<!-- Created with Inkscape (http://www.inkscape.org/) -->

<svg
   xmlns:svg="http://www.w3.org/2000/svg"
   xmlns="http://www.w3.org/2000/svg"
   version="1.1"
   width="71.8937"
   height="71.8937"
   id="svg2">
  <defs
     id="defs4" />
  <g
     transform="translate(-389.25,-360.88974)"
     id="layer1">
    <path
       d="m 389.75,361.40625 0,70.875 42.53125,0 10.625,-10.625 0,-31.90625 -21.25,21.28125 -7.09375,-7.09375 28.34375,-28.3125 0,-14.21875 -53.15625,0 z"
       id="path2818"
       style="fill:none;stroke:#000000;stroke-width:1px;stroke-linecap:butt;stroke-linejoin:miter;stroke-opacity:1" />
    <path
       d="m 442.91339,421.65352 -10.62993,0 0,10.62992 10.62993,-10.62992 z"
       id="path2820"
       style="fill:none;stroke:#000000;stroke-width:1px;stroke-linecap:butt;stroke-linejoin:bevel;stroke-opacity:1" />
    <path
       d="m 411.02362,414.56691 3.54331,-10.62992 7.08661,7.08661 -10.62992,3.54331 z"
       id="path3594"
       style="fill:none;stroke:#000000;stroke-width:1px;stroke-linecap:butt;stroke-linejoin:bevel;stroke-opacity:1" />
    <path
       d="m 414.56693,403.93699 31.88976,-31.88977 7.08662,7.08662 -31.88977,31.88976 -7.08661,-7.08661 z"
       id="path3596"
       style="fill:none;stroke:#000000;stroke-width:1px;stroke-linecap:butt;stroke-linejoin:miter;stroke-opacity:1" />
    <path
       d="M 451.75915,377.34968 420,408.96932"
       id="path3611"
       style="fill:none;stroke:#000000;stroke-width:1px;stroke-linecap:butt;stroke-linejoin:miter;stroke-opacity:1" />
    <path
       d="m 416.25,405.57647 31.96429,-31.78572"
       id="path3632"
       style="fill:none;stroke:#000000;stroke-width:1px;stroke-linecap:butt;stroke-linejoin:miter;stroke-opacity:1" />
    <path
       d="m 393.30709,368.50391 46.06299,0"
       id="path3634"
       style="fill:none;stroke:#000000;stroke-width:1px;stroke-linecap:butt;stroke-linejoin:miter;stroke-opacity:1" />
    <path
       d="m 393.30709,375.59053 46.06299,0"
       id="path3636"
       style="fill:none;stroke:#000000;stroke-width:1px;stroke-linecap:butt;stroke-linejoin:miter;stroke-opacity:1" />
    <path
       d="m 393.30709,382.67714 38.97637,0"
       id="path3638"
       style="fill:none;stroke:#000000;stroke-width:1px;stroke-linecap:butt;stroke-linejoin:miter;stroke-opacity:1" />
    <path
       d="m 393.30709,389.76376 31.88976,0"
       id="path3640"
       style="fill:none;stroke:#000000;stroke-width:1px;stroke-linecap:butt;stroke-linejoin:miter;stroke-opacity:1" />
    <path
       d="m 393.30709,396.85037 24.80315,0"
       id="path3642"
       style="fill:none;stroke:#000000;stroke-width:1px;stroke-linecap:butt;stroke-linejoin:miter;stroke-opacity:1" />
    <path
       d="m 393.30709,403.93699 17.71653,0"
       id="path3644"
       style="fill:none;stroke:#000000;stroke-width:1px;stroke-linecap:butt;stroke-linejoin:miter;stroke-opacity:1" />
    <path
       d="m 432.28346,403.93699 7.08662,0"
       id="path3646"
       style="fill:none;stroke:#000000;stroke-width:1px;stroke-linecap:butt;stroke-linejoin:miter;stroke-opacity:1" />
    <path
       d="m 393.30709,411.0236 14.17322,0"
       id="path3648"
       style="fill:none;stroke:#000000;stroke-width:1px;stroke-linecap:butt;stroke-linejoin:miter;stroke-opacity:1" />
    <path
       d="m 425.19685,411.0236 14.17323,0"
       id="path3650"
       style="fill:none;stroke:#000000;stroke-width:1px;stroke-linecap:butt;stroke-linejoin:miter;stroke-opacity:1" />
    <path
       d="m 393.30709,418.11021 35.43307,0"
       id="path3652"
       style="fill:none;stroke:#000000;stroke-width:1px;stroke-linecap:butt;stroke-linejoin:miter;stroke-opacity:1" />
  </g>
</svg>
